<?xml version="1.0" encoding="UTF-8"?><svg id="_图层_3" xmlns="http://www.w3.org/2000/svg" viewBox="0 0 77.97 32"><defs><style>.cls-1{fill:none;}.cls-2{fill:#00e060;}.cls-3{fill:#00bc59;}.cls-4{fill:#00bdff;}.cls-5{fill:#0088d3;}.cls-6{fill:#ed1438;}.cls-7{fill:#c43139;}.cls-8{fill:#3e3a39;}</style></defs><g><polygon class="cls-1" points="11.18 18.63 15.73 16 15.73 16 11.18 13.37 11.18 13.37 6.62 16 11.18 18.63 11.18 18.63"/><polygon class="cls-3" points="11.18 8.11 6.62 10.74 6.62 16 11.18 13.37 11.18 8.11"/><polygon class="cls-2" points="11.18 13.37 15.73 16 15.73 10.74 15.73 10.74 11.18 8.11 11.18 13.37 11.18 13.37"/><polygon class="cls-3" points="20.29 8.11 15.73 10.74 15.73 16 15.73 16 20.29 13.37 20.29 13.37 20.29 8.11"/><polygon class="cls-2" points="24.84 16 24.84 10.74 24.84 10.74 20.29 8.11 20.29 13.37 24.84 16"/><polygon class="cls-7" points="15.73 21.26 20.29 18.63 20.29 18.63 20.29 13.37 15.73 16 15.73 21.26"/><polygon class="cls-6" points="24.84 21.26 24.84 16 24.84 16 20.29 13.37 20.29 18.63 24.84 21.26"/><polygon class="cls-4" points="11.18 18.63 6.62 16 6.62 21.26 6.62 21.26 11.18 23.89 11.18 18.63 11.18 18.63"/><polygon class="cls-5" points="11.18 18.63 11.18 23.89 11.18 23.89 15.73 21.26 15.73 16 11.18 18.63"/></g><g><path class="cls-8" d="M40.65,19.91h-3.08l-2.53-5.12-.39,7.15h-3.14l.97-12.76h2.88l3.74,7.8,3.74-7.8h2.88l.97,12.76h-3.14l-.39-7.15-2.53,5.12Z"/><path class="cls-8" d="M56.56,9.18h3.2v8.16c0,1.51-.48,2.69-1.45,3.54-.97,.86-2.31,1.28-4.04,1.28s-3.08-.43-4.04-1.28c-.97-.86-1.45-2.04-1.45-3.54V9.18h3.19v8.26c0,.73,.19,1.28,.58,1.67,.39,.38,.96,.58,1.71,.58s1.32-.19,1.71-.58c.39-.38,.58-.94,.58-1.67V9.18Z"/><path class="cls-8" d="M69.9,19.47h-4.97l-.8,2.47h-3.29l4.83-12.76h3.51l4.83,12.76h-3.29l-.82-2.47Zm-4.15-2.49h3.33l-1.66-5.38-1.67,5.38Z"/></g></svg>