<?xml version="1.0" encoding="UTF-8"?><svg id="_图层_3" xmlns="http://www.w3.org/2000/svg" xmlns:xlink="http://www.w3.org/1999/xlink" viewBox="0 0 595.28 595.28"><defs><filter id="outer-glow-1" filterUnits="userSpaceOnUse"><feOffset dx="0" dy="0"/><feGaussianBlur result="blur" stdDeviation="31.18"/><feFlood flood-color="#00ff73" flood-opacity=".75"/><feComposite in2="blur" operator="in"/><feComposite in="SourceGraphic"/></filter><filter id="outer-glow-2" filterUnits="userSpaceOnUse"><feOffset dx="0" dy="0"/><feGaussianBlur result="blur-2" stdDeviation="31.18"/><feFlood flood-color="#00ff73" flood-opacity=".75"/><feComposite in2="blur-2" operator="in"/><feComposite in="SourceGraphic"/></filter><filter id="outer-glow-3" filterUnits="userSpaceOnUse"><feOffset dx="0" dy="0"/><feGaussianBlur result="blur-3" stdDeviation="31.18"/><feFlood flood-color="#00ff73" flood-opacity=".75"/><feComposite in2="blur-3" operator="in"/><feComposite in="SourceGraphic"/></filter><filter id="outer-glow-4" filterUnits="userSpaceOnUse"><feOffset dx="0" dy="0"/><feGaussianBlur result="blur-4" stdDeviation="31.18"/><feFlood flood-color="#ff4557" flood-opacity=".75"/><feComposite in2="blur-4" operator="in"/><feComposite in="SourceGraphic"/></filter><filter id="outer-glow-5" filterUnits="userSpaceOnUse"><feOffset dx="0" dy="0"/><feGaussianBlur result="blur-5" stdDeviation="31.18"/><feFlood flood-color="#00b1ff" flood-opacity=".75"/><feComposite in2="blur-5" operator="in"/><feComposite in="SourceGraphic"/></filter><filter id="outer-glow-6" filterUnits="userSpaceOnUse"><feOffset dx="0" dy="0"/><feGaussianBlur result="blur-6" stdDeviation="31.18"/><feFlood flood-color="#00b1ff" flood-opacity=".75"/><feComposite in2="blur-6" operator="in"/><feComposite in="SourceGraphic"/></filter></defs><polyline points="96.27 418.71 91.74 416.1 91.74 297.8 99.54 293.67" style="fill:none; stroke:#231815; stroke-miterlimit:10; stroke-width:4px;"/><polyline points="92.74 297.64 195.18 356.79 195.19 356.79 297.64 297.64 297.64 297.64 195.19 238.49 195.19 238.49 92.74 297.64" style="fill:none; stroke:#231815; stroke-miterlimit:10; stroke-width:4px;"/><polyline points="92.74 297.64 195.19 238.49 195.19 120.19" style="fill:#00ff73; filter:url(#outer-glow-1); stroke:#231815; stroke-miterlimit:10; stroke-width:4px;"/><polyline points="195.19 120.19 91.74 180.49 91.74 301.09" style="fill:#00ff73; filter:url(#outer-glow-2); stroke:#231815; stroke-miterlimit:10; stroke-width:4px;"/><polyline points="195.19 120.19 195.19 238.49 195.19 238.49 297.64 297.64 297.64 179.34 297.64 179.34 195.19 120.19" style="fill:none; stroke:#231815; stroke-miterlimit:10; stroke-width:4px;"/><polyline points="400.09 120.19 297.64 179.34 297.64 297.64 297.64 297.64 400.09 238.49 400.09 238.49 400.09 120.19" style="fill:#00ff73; filter:url(#outer-glow-3); stroke:#231815; stroke-miterlimit:10; stroke-width:4px;"/><polyline points="400.09 120.19 400.09 238.49 502.54 297.64 502.54 179.34 502.53 179.34 401.79 121.17 400.09 120.19" style="fill:none; stroke:#231815; stroke-miterlimit:10; stroke-width:4px;"/><polygon points="297.64 415.94 400.09 356.79 400.09 356.79 400.09 238.49 297.64 297.64 297.64 415.94" style="fill:#ff4557; filter:url(#outer-glow-4); stroke:#231815; stroke-miterlimit:10; stroke-width:4px;"/><polygon points="502.54 415.94 502.54 297.64 502.53 297.64 400.09 238.49 400.09 356.79 502.54 415.94" style="fill:none; stroke:#231815; stroke-miterlimit:10; stroke-width:4px;"/><polyline points="91.74 416.1 91.75 416.1 194.19 475.25 194.19 476.25 194.19 357.95 194.19 357.95 91.74 298.8" style="fill:none; stroke:#231815; stroke-miterlimit:10; stroke-width:4px;"/><polyline points="194.54 475.25 296.99 416.1 296.99 297.8 194.54 356.95 194.54 475.25" style="fill:#00b1ff; filter:url(#outer-glow-5); stroke:#231815; stroke-miterlimit:10; stroke-width:4px;"/><line x1="194.54" y1="475.25" x2="194.54" y2="475.25" style="fill:#00b1ff; filter:url(#outer-glow-6); stroke:#231815; stroke-miterlimit:10; stroke-width:4px;"/><g><line x1="114.85" y1="311.48" x2="91.67" y2="327.74" style="fill:#231815; stroke:#231815; stroke-miterlimit:10; stroke-width:4px;"/><line x1="131.04" y1="320.9" x2="91.67" y2="350.01" style="fill:#231815; stroke:#231815; stroke-miterlimit:10; stroke-width:4px;"/><line x1="152.3" y1="333.1" x2="91.67" y2="371.46" style="fill:#231815; stroke:#231815; stroke-miterlimit:10; stroke-width:4px;"/><line x1="173.92" y1="345.23" x2="91.67" y2="394.62" style="fill:#231815; stroke:#231815; stroke-miterlimit:10; stroke-width:4px;"/><line x1="194.11" y1="357.32" x2="91.67" y2="417.29" style="fill:#231815; stroke:#231815; stroke-miterlimit:10; stroke-width:4px;"/><line x1="194.26" y1="381.16" x2="116.06" y2="430.55" style="fill:#231815; stroke:#231815; stroke-miterlimit:10; stroke-width:4px;"/><line x1="193.42" y1="403.78" x2="134.82" y2="440.85" style="fill:#231815; stroke:#231815; stroke-miterlimit:10; stroke-width:4px;"/><line x1="192.85" y1="430.41" x2="154.98" y2="453.86" style="fill:#231815; stroke:#231815; stroke-miterlimit:10; stroke-width:4px;"/><line x1="194.24" y1="451.3" x2="173.83" y2="463.57" style="fill:#231815; stroke:#231815; stroke-miterlimit:10; stroke-width:4px;"/></g><g><line x1="423.28" y1="133.51" x2="400.09" y2="149.76" style="fill:#231815; stroke:#231815; stroke-miterlimit:10; stroke-width:4px;"/><line x1="439.46" y1="142.92" x2="400.09" y2="172.03" style="fill:#231815; stroke:#231815; stroke-miterlimit:10; stroke-width:4px;"/><line x1="460.72" y1="155.13" x2="400.09" y2="193.48" style="fill:#231815; stroke:#231815; stroke-miterlimit:10; stroke-width:4px;"/><line x1="482.34" y1="167.26" x2="400.09" y2="216.64" style="fill:#231815; stroke:#231815; stroke-miterlimit:10; stroke-width:4px;"/><line x1="502.53" y1="179.34" x2="400.09" y2="239.31" style="fill:#231815; stroke:#231815; stroke-miterlimit:10; stroke-width:4px;"/><line x1="502.68" y1="203.18" x2="424.48" y2="252.57" style="fill:#231815; stroke:#231815; stroke-miterlimit:10; stroke-width:4px;"/><line x1="501.84" y1="225.81" x2="443.25" y2="262.87" style="fill:#231815; stroke:#231815; stroke-miterlimit:10; stroke-width:4px;"/><line x1="501.27" y1="252.43" x2="463.4" y2="275.88" style="fill:#231815; stroke:#231815; stroke-miterlimit:10; stroke-width:4px;"/><line x1="502.66" y1="273.32" x2="482.25" y2="285.59" style="fill:#231815; stroke:#231815; stroke-miterlimit:10; stroke-width:4px;"/></g><g><line x1="195.19" y1="120.19" x2="297.64" y2="296.64" style="fill:#231815; stroke:#231815; stroke-miterlimit:10; stroke-width:4px;"/><g><g><line x1="245.77" y1="149.23" x2="297.64" y2="238.56" style="fill:#231815; stroke:#231815; stroke-miterlimit:10; stroke-width:4px;"/><line x1="271.7" y1="164.22" x2="297.6" y2="208.82" style="fill:#231815; stroke:#231815; stroke-miterlimit:10; stroke-width:4px;"/><line x1="220.02" y1="134.26" x2="297.6" y2="268.77" style="fill:#231815; stroke:#231815; stroke-miterlimit:10; stroke-width:4px;"/></g><g><line x1="247.05" y1="268.39" x2="195.19" y2="179.06" style="fill:#231815; stroke:#231815; stroke-miterlimit:10; stroke-width:4px;"/><line x1="221.12" y1="253.39" x2="195.22" y2="208.79" style="fill:#231815; stroke:#231815; stroke-miterlimit:10; stroke-width:4px;"/><line x1="272.8" y1="283.36" x2="195.22" y2="148.85" style="fill:#231815; stroke:#231815; stroke-miterlimit:10; stroke-width:4px;"/></g></g></g><g><line x1="400.09" y1="238.49" x2="502.5" y2="414.43" style="fill:#231815; stroke:#231815; stroke-miterlimit:10; stroke-width:4px;"/><g><g><line x1="450.65" y1="267.44" x2="502.5" y2="356.51" style="fill:#231815; stroke:#231815; stroke-miterlimit:10; stroke-width:4px;"/><line x1="476.58" y1="282.39" x2="502.47" y2="326.87" style="fill:#231815; stroke:#231815; stroke-miterlimit:10; stroke-width:4px;"/><line x1="424.91" y1="252.52" x2="502.47" y2="386.64" style="fill:#231815; stroke:#231815; stroke-miterlimit:10; stroke-width:4px;"/></g><g><line x1="451.93" y1="386.25" x2="400.08" y2="297.19" style="fill:#231815; stroke:#231815; stroke-miterlimit:10; stroke-width:4px;"/><line x1="426.01" y1="371.31" x2="400.12" y2="326.83" style="fill:#231815; stroke:#231815; stroke-miterlimit:10; stroke-width:4px;"/><line x1="477.68" y1="401.18" x2="400.12" y2="267.06" style="fill:#231815; stroke:#231815; stroke-miterlimit:10; stroke-width:4px;"/></g></g></g><path d="M195.37,123.54c3.22,0,3.22-5,0-5s-3.22,5,0,5h0Z" style="fill:#231815;"/><path d="M195.16,123.33c3.22,0,3.22-5,0-5s-3.22,5,0,5h0Z" style="fill:#231815;"/><path d="M195.27,123.54c3.22,0,3.22-5,0-5s-3.22,5,0,5h0Z" style="fill:#231815;"/><path d="M400.24,123.31c3.22,0,3.22-5,0-5s-3.22,5,0,5h0Z" style="fill:#231815;"/><path d="M400.08,123.47c3.22,0,3.22-5,0-5s-3.22,5,0,5h0Z" style="fill:#231815;"/><path d="M194.27,477.14c3.22,0,3.22-5,0-5s-3.22,5,0,5h0Z" style="fill:#231815;"/><path d="M194.27,477.2c3.22,0,3.22-5,0-5s-3.22,5,0,5h0Z" style="fill:#231815;"/><path d="M194.46,477.2c3.22,0,3.22-5,0-5s-3.22,5,0,5h0Z" style="fill:#231815;"/></svg>